<svg xmlns="http://www.w3.org/2000/svg" viewBox="0 0 800 1100"><defs><linearGradient id="bg" x1="0" y1="0" x2="1" y2="1"><stop stop-color="#eee5d9"/><stop offset="1" stop-color="#c9bba9"/></linearGradient><linearGradient id="gold"><stop stop-color="#f5d985"/><stop offset=".5" stop-color="#9d6c24"/><stop offset="1" stop-color="#eac15f"/></linearGradient></defs><rect width="800" height="1100" fill="url(#bg)"/><path d="M180 140 Q400 65 620 140" fill="none" stroke="#9d6c24" stroke-width="18"/><g fill="url(#gold)" stroke="#76501f" stroke-width="5"><circle cx="225" cy="210" r="52"/><circle cx="315" cy="235" r="48"/><circle cx="400" cy="255" r="44"/><circle cx="485" cy="235" r="48"/><circle cx="575" cy="210" r="52"/><circle cx="270" cy="330" r="46"/><circle cx="355" cy="350" r="42"/><circle cx="445" cy="350" r="42"/><circle cx="530" cy="330" r="46"/><circle cx="315" cy="445" r="44"/><circle cx="400" cy="465" r="40"/><circle cx="485" cy="445" r="44"/><circle cx="350" cy="560" r="48"/><circle cx="400" cy="585" r="55"/><circle cx="450" cy="560" r="48"/><circle cx="400" cy="720" r="75"/></g><g fill="#176b61" stroke="#76501f" stroke-width="4"><circle cx="225" cy="210" r="20"/><circle cx="315" cy="235" r="18"/><circle cx="400" cy="255" r="16"/><circle cx="485" cy="235" r="18"/><circle cx="575" cy="210" r="20"/><circle cx="270" cy="330" r="17"/><circle cx="355" cy="350" r="15"/><circle cx="445" cy="350" r="15"/><circle cx="530" cy="330" r="17"/><circle cx="315" cy="445" r="16"/><circle cx="400" cy="465" r="14"/><circle cx="485" cy="445" r="16"/><circle cx="350" cy="560" r="18"/><circle cx="400" cy="585" r="21"/><circle cx="450" cy="560" r="18"/><circle cx="400" cy="720" r="30"/></g><text x="400" y="1045" text-anchor="middle" font-family="serif" font-size="22" letter-spacing="5" fill="#4c3927">JEWEL HUB UK</text></svg>